<svg width="32" height="32" fill="none" xmlns="http://www.w3.org/2000/svg"><path d="M6.17 6.667H3.874v17.179h2.294V6.667z" fill="url(#paint0_linear_392_7912)"/><path d="M5.972 8.734l.745-.717-1.72-1.72-1.692 1.72.717.717-.717.746.717.745-.717.746.717.745-.717.746.717.746-.717.745.717.717-.717.746.717.746-.717.745.717.746-.717.745.717.746-.717.746.717.745-.717.717 1.692 1.721 1.72-1.72-.745-.718.745-.745-.745-.746.745-.745-.745-.746.745-.746-.745-.745.745-.746-.745-.746.745-.717-.745-.745.745-.746-.745-.745.745-.746-.745-.746.745-.745-.745-.746z" fill="url(#paint1_linear_392_7912)"/><path d="M11.135 7.037H2.359v-.373c0-.43.345-.774.775-.774h7.255l.746 1.147z" fill="url(#paint2_linear_392_7912)"/><path d="M7.694 4.745H2.359v1.148h5.335V4.745z" fill="url(#paint3_linear_392_7912)"/><path d="M5.57 4H4.421a.575.575 0 00-.573.573v.2h2.294v-.2a.575.575 0 00-.574-.574z" fill="url(#paint4_linear_392_7912)"/><path d="M7.666 5.518H2.332v.373h5.334v-.373z" fill="url(#paint5_linear_392_7912)"/><path d="M6.922 25.366H3.137v.775h3.785v-.774z" fill="url(#paint6_linear_392_7912)"/><path d="M8.44 26.515H1.586v.774H8.44v-.774z" fill="url(#paint7_linear_392_7912)"/><path d="M5.774 24.991h-1.52v.373h1.52v-.373z" fill="url(#paint8_linear_392_7912)"/><path d="M10.358 24.994H3.102a.771.771 0 01-.774-.774v-.373h8.804l-.774 1.147z" fill="url(#paint9_linear_392_7912)"/><path d="M5.604 28.037H4.456a.575.575 0 01-.573-.574v-1.32h2.294v1.32a.575.575 0 01-.573.574z" fill="url(#paint10_linear_392_7912)"/><path d="M1.587 27.661a.774.774 0 100-1.548.774.774 0 000 1.548z" fill="url(#paint11_radial_392_7912)"/><path d="M6.15 26.144H3.855v.373H6.15v-.373z" fill="url(#paint12_linear_392_7912)"/><path d="M8.097 27.603h.459a.287.287 0 00.287-.287v-.975a.287.287 0 00-.287-.287h-.459v1.549z" fill="url(#paint13_linear_392_7912)"/><path d="M4.02 8.733l-.747-.746h3.442l-2.696.746zm2.695.745H3.273l.746.746 2.696-.746zm0 1.492H3.273l.746.745 2.696-.745zm0 10.381H3.273l.746.746 2.696-.746zm0-1.463H3.273l.746.746 2.696-.746zm0-1.49H3.273l.746.745 2.696-.746zm0-1.492H3.273l.746.745 2.696-.745zm0-1.491H3.273l.746.745 2.696-.745zm0-1.463H3.273l.746.746 2.696-.746zm0-1.491H3.273l.746.745 2.696-.745z" fill="url(#paint14_linear_392_7912)"/><path d="M26.017 4.578H15.291a2.056 2.056 0 00-2.064 2.064v17.293c0 1.148.917 2.065 2.064 2.065h13.852a2.056 2.056 0 002.065-2.065V9.711l-5.19-5.133z" fill="url(#paint15_linear_392_7912)"/><path d="M26.876 9.708h4.302l-5.162-5.162v4.302c0 .488.401.86.86.86z" fill="url(#paint16_linear_392_7912)"/><path d="M19.48 16.188h-.316v.889h-.746v-3.011h1.09c.889 0 1.348.373 1.348 1.032-.03.66-.517 1.09-1.377 1.09zm0-1.491h-.316v.889h.315c.402 0 .574-.172.574-.46 0-.286-.172-.43-.574-.43zm2.725 2.351h-1.061v-2.982h1.061c1.147 0 1.807.459 1.807 1.462-.029.975-.631 1.52-1.807 1.52zm-.028-2.351h-.287v1.692h.287c.716 0 1.032-.287 1.032-.86 0-.574-.316-.832-1.032-.832zm4.239 0h-1.319v.745h1.205v.631h-1.205v.975h-.745v-2.982h2.064v.63z" fill="#fff"/><defs><linearGradient id="paint0_linear_392_7912" x1="3.872" y1="15.257" x2="6.163" y2="15.257" gradientUnits="userSpaceOnUse"><stop stop-color="#FF9B23"/><stop offset=".271" stop-color="#FF9A20"/><stop offset=".362" stop-color="#FFAC31"/><stop offset=".549" stop-color="#FFCD50"/><stop offset=".625" stop-color="#FFC54C"/><stop offset=".835" stop-color="#FFB645"/><stop offset="1" stop-color="#FFB042"/></linearGradient><linearGradient id="paint1_linear_392_7912" x1="3.291" y1="14.685" x2="6.727" y2="14.685" gradientUnits="userSpaceOnUse"><stop stop-color="#FF9B23"/><stop offset=".271" stop-color="#FA0"/><stop offset=".429" stop-color="#FFB232"/><stop offset=".549" stop-color="#FFB753"/><stop offset=".772" stop-color="#FFB248"/><stop offset="1" stop-color="#FFB042"/></linearGradient><linearGradient id="paint2_linear_392_7912" x1="2.349" y1="6.464" x2="11.125" y2="6.464" gradientUnits="userSpaceOnUse"><stop stop-color="#FF9B23"/><stop offset=".274" stop-color="#FFBD38"/><stop offset=".547" stop-color="#FFBD38"/><stop offset=".717" stop-color="#FFBF3E"/><stop offset="1" stop-color="#FFC144"/></linearGradient><linearGradient id="paint3_linear_392_7912" x1="2.349" y1="5.319" x2="7.683" y2="5.319" gradientUnits="userSpaceOnUse"><stop stop-color="#FF9B23"/><stop offset=".274" stop-color="#FFBD38"/><stop offset=".547" stop-color="#FFBD38"/><stop offset=".717" stop-color="#FFBF3E"/><stop offset="1" stop-color="#FFC144"/></linearGradient><linearGradient id="paint4_linear_392_7912" x1="3.863" y1="4.387" x2="6.153" y2="4.387" gradientUnits="userSpaceOnUse"><stop stop-color="#FF9B23"/><stop offset=".274" stop-color="#FFBD38"/><stop offset=".547" stop-color="#FFBD38"/><stop offset=".717" stop-color="#FFBF3E"/><stop offset="1" stop-color="#FFC144"/></linearGradient><linearGradient id="paint5_linear_392_7912" x1="2.339" y1="5.705" x2="7.683" y2="5.705" gradientUnits="userSpaceOnUse"><stop stop-color="#FFB650"/><stop offset=".111" stop-color="#FFB130"/><stop offset=".225" stop-color="#FFAD15"/><stop offset=".328" stop-color="#FFAB06"/><stop offset=".408" stop-color="#FA0"/><stop offset="1" stop-color="#FFC124"/></linearGradient><linearGradient id="paint6_linear_392_7912" x1="3.127" y1="25.754" x2="6.922" y2="25.754" gradientUnits="userSpaceOnUse"><stop stop-color="#FF9B23"/><stop offset=".274" stop-color="#FFBD38"/><stop offset=".547" stop-color="#FFBD38"/><stop offset=".717" stop-color="#FFBF3E"/><stop offset="1" stop-color="#FFC144"/></linearGradient><linearGradient id="paint7_linear_392_7912" x1="5.013" y1="27.286" x2="5.013" y2="26.519" gradientUnits="userSpaceOnUse"><stop stop-color="#FF9B23"/><stop offset=".273" stop-color="#FF9A20"/><stop offset=".373" stop-color="#FFB22E"/><stop offset=".472" stop-color="#FFC137"/><stop offset=".549" stop-color="#FFC73A"/><stop offset=".556" stop-color="#FFC73B"/><stop offset=".805" stop-color="#FFBA4A"/><stop offset="1" stop-color="#FFB650"/></linearGradient><linearGradient id="paint8_linear_392_7912" x1="4.248" y1="25.178" x2="5.775" y2="25.178" gradientUnits="userSpaceOnUse"><stop stop-color="#FFB650"/><stop offset=".111" stop-color="#FFB130"/><stop offset=".225" stop-color="#FFAD15"/><stop offset=".328" stop-color="#FFAB06"/><stop offset=".408" stop-color="#FA0"/><stop offset="1" stop-color="#FFC124"/></linearGradient><linearGradient id="paint9_linear_392_7912" x1="2.347" y1="24.421" x2="11.127" y2="24.421" gradientUnits="userSpaceOnUse"><stop stop-color="#FF9B23"/><stop offset=".274" stop-color="#FFBD38"/><stop offset=".547" stop-color="#FFBD38"/><stop offset=".717" stop-color="#FFBF3E"/><stop offset="1" stop-color="#FFC144"/></linearGradient><linearGradient id="paint10_linear_392_7912" x1="3.88" y1="27.09" x2="6.17" y2="27.09" gradientUnits="userSpaceOnUse"><stop stop-color="#FF9B23"/><stop offset=".274" stop-color="#FFBD38"/><stop offset=".547" stop-color="#FFBD38"/><stop offset=".717" stop-color="#FFBF3E"/><stop offset="1" stop-color="#FFC144"/></linearGradient><linearGradient id="paint12_linear_392_7912" x1="3.87" y1="26.33" x2="6.16" y2="26.33" gradientUnits="userSpaceOnUse"><stop stop-color="#FFB650"/><stop offset=".111" stop-color="#FFB130"/><stop offset=".225" stop-color="#FFAD15"/><stop offset=".328" stop-color="#FFAB06"/><stop offset=".408" stop-color="#FA0"/><stop offset="1" stop-color="#FFC124"/></linearGradient><linearGradient id="paint13_linear_392_7912" x1="8.763" y1="26.828" x2="8.017" y2="26.828" gradientUnits="userSpaceOnUse"><stop stop-color="#FF9B23"/><stop offset=".274" stop-color="#FFBD38"/><stop offset=".547" stop-color="#FFBD38"/><stop offset=".717" stop-color="#FFBF3E"/><stop offset="1" stop-color="#FFC144"/></linearGradient><linearGradient id="paint14_linear_392_7912" x1="3.289" y1="15.042" x2="6.724" y2="15.042" gradientUnits="userSpaceOnUse"><stop stop-color="#FFAB03"/><stop offset=".781" stop-color="#FF991E"/><stop offset=".809" stop-color="#FF9A1F"/><stop offset=".999" stop-color="#FF9C25"/></linearGradient><linearGradient id="paint15_linear_392_7912" x1="22.217" y1="26" x2="22.217" y2="4.578" gradientUnits="userSpaceOnUse"><stop stop-color="#09BDF8"/><stop offset="1" stop-color="#1591D4"/></linearGradient><linearGradient id="paint16_linear_392_7912" x1="26.265" y1="9.459" x2="28.593" y2="7.131" gradientUnits="userSpaceOnUse"><stop stop-color="#2651A1"/><stop offset="1" stop-color="#1E3C74"/></linearGradient><radialGradient id="paint11_radial_392_7912" cx="0" cy="0" r="1" gradientUnits="userSpaceOnUse" gradientTransform="translate(1.576 26.9) scale(.76353)"><stop stop-color="#FF9B23"/><stop offset=".274" stop-color="#FFBD38"/><stop offset=".547" stop-color="#FFBD38"/><stop offset=".717" stop-color="#FFBF3E"/><stop offset="1" stop-color="#FFC144"/></radialGradient></defs></svg>