<svg version="1.1" id="Layer_1" xmlns="http://www.w3.org/2000/svg" x="0" y="0" viewBox="0 0 24 24" xml:space="preserve"><style>.st1{fill-rule:evenodd;clip-rule:evenodd;fill:#2651a1}</style><path fill="none" d="M0 0h24v24H0z"/><g id="icons-_x2F_-24px-_x2F_-pdfonline-_x2F_-compress"><g id="compress" transform="translate(4 4)"><path id="Path" class="st1" d="M1.7.3l1.9 1.9 1.1-1.1.5 4.1-4-.5 1.1-1.1-2-1.9C-.1 1.3-.1.7.3.3c.4-.4 1-.4 1.4 0z"/><path id="Path_1_" class="st1" d="M15.7.3c.4.4.4 1 0 1.4l-1.9 1.9 1.1 1.1-4.1.5.5-4.1 1.1 1.1L14.3.3c.4-.4 1.1-.4 1.4 0z"/><path id="Path_2_" class="st1" d="M.3 15.7c-.4-.4-.4-1 0-1.4l1.9-1.9-1.1-1.1 4.1-.5-.5 4.1-1.1-1.1-1.9 1.9c-.4.4-1 .4-1.4 0z"/><path id="Path_3_" class="st1" d="M14.3 15.7l-1.9-1.9-1.1 1.1-.5-4.1 4.1.5-1.1 1.1 1.9 1.9c.4.4.4 1 0 1.4-.3.4-1 .4-1.4 0z"/><path id="Rectangle" d="M7 6h2c.6 0 1 .4 1 1v2c0 .6-.4 1-1 1H7c-.6 0-1-.4-1-1V7c0-.6.4-1 1-1z" fill-rule="evenodd" clip-rule="evenodd" fill="#ff723f"/></g></g></svg>