<svg version="1.1" id="Layer_1" xmlns="http://www.w3.org/2000/svg" x="0" y="0" viewBox="0 0 24 24" xml:space="preserve"><style>.st0,.st1{fill-rule:evenodd;clip-rule:evenodd;fill:#2651a1}.st1{fill:#6bd8ff}</style><g id="icons-_x2F_-24px-_x2F_-pdfonline-_x2F_-convert"><path id="Fill-1-Copy" class="st0" d="M21.4 12c.4.4.6.9.6 1.4V20c0 1.1-.9 2-2 2h-7c-1.1 0-2-.9-2-2v-9c0-1.1.9-2 2-2h4.6c.5 0 1 .2 1.4.6l2.4 2.4z"/><path id="Fill-3" class="st1" d="M9.984 2.606l2.435 2.451A2 2 0 0113 6.473l-.022 6.534A2 2 0 0110.971 15l-6.978-.023A2 2 0 012 12.97l.03-8.977A2 2 0 014.037 2l4.534.016a1.999 1.999 0 011.413.59"/><path id="Fill-8" class="st1" d="M4.5 17v.2c0 .6.5 1.2 1.1 1.2H7V17l2.5 2.2L7 21.5V20H5.5C4.1 20 3 18.9 3 17.5V17h1.5z"/><path id="Fill-8-Copy" class="st0" d="M20 7v-.2c0-.6-.5-1.2-1.1-1.2h-1.4V7L15 4.8l2.5-2.3V4H19c1.4 0 2.5 1.1 2.5 2.5V7H20z"/></g></svg>