<svg version="1.1" id="Layer_1" xmlns="http://www.w3.org/2000/svg" x="0" y="0" viewBox="0 0 24 24" xml:space="preserve"><style>.st2{fill-rule:evenodd;clip-rule:evenodd;fill:#2651a1}</style><path id="Rectangle" fill="none" d="M0 0h24v24H0z"/><g id="Group" transform="translate(3 2)"><path id="Combined-Shape_1_" d="M8.175 0c.531 0 1.036.211 1.411.586l1.828 1.828A2 2 0 0112 3.828V7.5H4.75a.75.75 0 000 1.5H6v5H2a2 2 0 01-2-2V2a2 2 0 012-2h6.175zM12 9v3a2 2 0 01-2 2H7.5V9H12zM6.75 5a.75.75 0 00-.75.75v.75h1.5v-.75A.75.75 0 006.75 5z" fill-rule="evenodd" clip-rule="evenodd" fill="#ff723f"/></g><path class="st2" d="M20.25 11H15V9.5h5.25a.75.75 0 010 1.5zM9.75 21.5a.75.75 0 01-.75-.75V16h1.5v4.75a.75.75 0 01-.75.75z"/><path class="st2" d="M20.25 19.5H7.75a.75.75 0 010-1.5h12.5a.75.75 0 010 1.5z"/><path class="st2" d="M18.25 21.5a.75.75 0 01-.75-.75v-13a.75.75 0 011.5 0v13a.75.75 0 01-.75.75z"/></svg>