<svg width="32" height="32" fill="none" xmlns="http://www.w3.org/2000/svg"><path d="M24.723 6.9v.034h.069l-.07-.034z" fill="url(#paint0_linear_392_7897)"/><path d="M25.646 12.406h4.617l-5.472-5.473h-.035v4.549c-.034.513.377.924.89.924z" fill="url(#paint1_linear_392_7897)"/><path d="M25.646 12.406h4.617l-5.472-5.473h-.035v4.549c-.034.513.377.924.89.924z" fill="url(#paint2_linear_392_7897)"/><path d="M16.341 2.832H9.16a2.452 2.452 0 00-2.463 2.463v11.287h9.645V2.832z" fill="url(#paint3_linear_392_7897)"/><path d="M24.859 6.933h-.068l5.472 5.473h-4.617a.92.92 0 01-.924-.924v-4.55h-3.968v13.751H11.11v6.807a2.452 2.452 0 002.463 2.462h14.365A2.452 2.452 0 0030.4 27.49V12.44l-5.54-5.507z" fill="url(#paint4_linear_392_7897)"/><path d="M20.309 25.954h-.342v.923h-.821v-3.215h1.163c.958 0 1.436.377 1.436 1.095 0 .752-.512 1.197-1.436 1.197zm0-1.608h-.342v.958h.342c.445 0 .616-.205.616-.479 0-.273-.206-.479-.616-.479zm2.908 2.531h-1.13v-3.215h1.13c1.231 0 1.915.48 1.915 1.574 0 1.026-.65 1.641-1.915 1.641zm0-2.53h-.308v1.846h.308c.752 0 1.094-.308 1.094-.923 0-.616-.342-.924-1.094-.924zm4.515-.001h-1.403v.821h1.266v.684h-1.266v1.026h-.82v-3.215h2.223v.684z" fill="#fff"/><path d="M19.934 17.983h-1.3V1.6h-.89v16.384H1.6v.855h16.144v1.06h.89v-1.06h1.3v-.855z" fill="url(#paint5_linear_392_7897)"/><defs><linearGradient id="paint0_linear_392_7897" x1="22.238" y1="9.435" x2="24.763" y2="6.911" gradientUnits="userSpaceOnUse"><stop stop-color="#F8F9FA"/><stop offset="1" stop-color="#ECF1F4"/></linearGradient><linearGradient id="paint1_linear_392_7897" x1="27.509" y1="29.936" x2="27.509" y2="6.932" gradientUnits="userSpaceOnUse"><stop stop-color="#F8FAFC"/><stop offset="1" stop-color="#E7EBF3"/></linearGradient><linearGradient id="paint2_linear_392_7897" x1="25.019" y1="12.16" x2="27.518" y2="9.661" gradientUnits="userSpaceOnUse"><stop stop-color="#2651A1"/><stop offset="1" stop-color="#1E3C74"/></linearGradient><linearGradient id="paint3_linear_392_7897" x1="11.519" y1="25.832" x2="11.519" y2="2.828" gradientUnits="userSpaceOnUse"><stop stop-color="#09BDF8"/><stop offset="1" stop-color="#1591D4"/></linearGradient><linearGradient id="paint4_linear_392_7897" x1="20.755" y1="29.952" x2="20.755" y2="6.933" gradientUnits="userSpaceOnUse"><stop stop-color="#09BDF8"/><stop offset="1" stop-color="#1591D4"/></linearGradient><linearGradient id="paint5_linear_392_7897" x1="10.767" y1="19.899" x2="10.767" y2="1.571" gradientUnits="userSpaceOnUse"><stop stop-color="#FFCB5D"/><stop offset="1" stop-color="#FF723F"/></linearGradient></defs></svg>