<svg width="108" height="108" fill="none" xmlns="http://www.w3.org/2000/svg"><path d="M91.528 14H59.557a6.13 6.13 0 00-6.155 6.155V71.7a6.13 6.13 0 006.155 6.155h41.288A6.129 6.129 0 00107 71.702v-42.4L91.528 14z" fill="url(#paint0_linear_83_6332)"/><path d="M94.092 29.387h12.823L91.528 14v12.823c0 1.367 1.11 2.564 2.564 2.564z" fill="url(#paint1_linear_83_6332)"/><path d="M72.037 48.62h-.94v2.65h-2.223v-8.975h3.249c2.65 0 4.017 1.111 4.017 3.078-.085 2.051-1.538 3.248-4.103 3.248zm0-4.444h-.94v2.65h.94c1.197 0 1.71-.513 1.71-1.368 0-.855-.513-1.282-1.71-1.282zm8.121 7.094h-3.163v-8.975h3.163c3.42 0 5.386 1.368 5.386 4.36-.086 2.906-1.88 4.616-5.386 4.616zm-.085-7.009h-.855v5.044h.855c2.137 0 3.077-.855 3.077-2.565s-.94-2.479-3.077-2.479zm12.651 0h-3.932v2.223h3.59v1.88h-3.59v2.907h-2.223v-8.976h6.155v1.966z" fill="#fff"/><path d="M20.405 39.816l-5.984-9.574h4.445c.086-5.471 4.445-9.83 9.916-9.83v2.991c-3.76 0-6.924 3.078-6.924 6.924h4.445l-5.898 9.489z" fill="url(#paint2_linear_83_6332)"/><path d="M32.886 94.27H6.642c-.684 0-1.197-.514-1.282-1.198L2.966 57.17h33.68l-2.478 35.903c0 .684-.599 1.197-1.282 1.197z" fill="url(#paint3_linear_83_6332)"/><path d="M10.916 91.02a1.132 1.132 0 01-1.11-1.11V61.528a1.13 1.13 0 011.11-1.111c.599 0 1.112.513 1.112 1.11v28.467c-.086.513-.513 1.026-1.112 1.026zm5.899 0a1.132 1.132 0 01-1.112-1.11V61.528c0-.599.514-1.111 1.112-1.111.598 0 1.111.513 1.111 1.11v28.467c0 .513-.513 1.026-1.111 1.026zm5.984 0a1.132 1.132 0 01-1.112-1.11V61.528c0-.599.513-1.111 1.112-1.111.598 0 1.111.513 1.111 1.11v28.467c-.085.513-.513 1.026-1.111 1.026zm5.898 0a1.132 1.132 0 01-1.111-1.11V61.528a1.13 1.13 0 011.111-1.111 1.13 1.13 0 011.111 1.11v28.467c0 .513-.512 1.026-1.11 1.026z" fill="url(#paint4_linear_83_6332)"/><path d="M28.27 56.742a3.83 3.83 0 01-3.847-3.847v-.342c0-1.197-.94-2.137-2.137-2.137H17.84c-1.196 0-2.137.94-2.137 2.137v.342a3.83 3.83 0 01-3.846 3.847.857.857 0 01-.855-.855c0-.427.427-.855.854-.855 1.197 0 2.138-.94 2.138-2.137v-.342a3.83 3.83 0 013.846-3.847h4.446a3.83 3.83 0 013.846 3.847v.342c0 1.197.94 2.137 2.137 2.137.513 0 .855.428.855.855a.857.857 0 01-.855.855z" fill="url(#paint5_linear_83_6332)"/><path d="M36.989 57.17H2.624A1.623 1.623 0 011 55.544c0-.855.684-1.624 1.624-1.624H36.99c.855 0 1.624.684 1.624 1.624 0 .855-.77 1.624-1.624 1.624z" fill="url(#paint6_linear_83_6332)"/><defs><linearGradient id="paint0_linear_83_6332" x1="80.201" y1="77.856" x2="80.201" y2="14" gradientUnits="userSpaceOnUse"><stop stop-color="#09BDF8"/><stop offset="1" stop-color="#1591D4"/></linearGradient><linearGradient id="paint1_linear_83_6332" x1="92.287" y1="28.627" x2="99.228" y2="21.686" gradientUnits="userSpaceOnUse"><stop stop-color="#2651A1"/><stop offset="1" stop-color="#1E3C74"/></linearGradient><linearGradient id="paint2_linear_83_6332" x1="21.602" y1="20.379" x2="21.602" y2="39.827" gradientUnits="userSpaceOnUse"><stop stop-color="#FFCB5D"/><stop offset="1" stop-color="#FF723F"/></linearGradient><linearGradient id="paint3_linear_83_6332" x1="19.807" y1="94.269" x2="19.807" y2="57.169" gradientUnits="userSpaceOnUse"><stop stop-color="#FFCB5D"/><stop offset="1" stop-color="#FF723F"/></linearGradient><linearGradient id="paint4_linear_83_6332" x1="19.807" y1="91.021" x2="19.807" y2="60.418" gradientUnits="userSpaceOnUse"><stop stop-color="#FFA550"/><stop offset="1" stop-color="#FFCB5D"/></linearGradient><linearGradient id="paint5_linear_83_6332" x1="20.063" y1="56.718" x2="20.063" y2="48.621" gradientUnits="userSpaceOnUse"><stop stop-color="#09BDF8"/><stop offset="1" stop-color="#1591D4"/></linearGradient><linearGradient id="paint6_linear_83_6332" x1="19.806" y1="57.145" x2="19.806" y2="53.926" gradientUnits="userSpaceOnUse"><stop stop-color="#FFCB5D"/><stop offset="1" stop-color="#FF723F"/></linearGradient></defs></svg>