<svg version="1.1" id="Layer_1" xmlns="http://www.w3.org/2000/svg" x="0" y="0" viewBox="0 0 24 24" xml:space="preserve"><style>.st2{fill-rule:evenodd;clip-rule:evenodd;fill:#09bdf8}</style><path d="M19 9.6l2.4 2.5c.4.3.6.8.6 1.4V20c0 1.1-.9 2-2 2h-7c-1.1 0-2-.9-2-2v-9c0-1.1.9-2 2-2h4.5c.6 0 1.1.2 1.5.6" fill-rule="evenodd" clip-rule="evenodd" fill="#2651a1"/><path id="Rectangle" fill="none" d="M0 0h24v24H0z"/><path id="Fill-8_1_" class="st2" d="M4.5 17v.2c0 .6.5 1.2 1.1 1.2H7V17l2.5 2.2L7 21.5V20H5.5C4.1 20 3 18.9 3 17.5V17h1.5z"/><path class="st2" d="M10 2.6l2.4 2.5c.4.3.6.8.6 1.4V13c0 1.1-.9 2-2 2H4c-1.1 0-2-.9-2-2V4c0-1.1.9-2 2-2h4.5c.6 0 1.1.2 1.5.6M9.7 13H8.4c-.4-1.71-.6-2.61-.7-3.24-.1.63-.3 1.62-.7 3.24H5.7L4.5 8.5h1.3c.4 1.8.6 2.79.7 3.42.1-.54.3-1.26.8-3.42h1.1c.5 2.16.6 2.88.7 3.33.1-.45.2-1.08.7-3.33H11L9.7 13z"/></svg>