<svg xmlns="http://www.w3.org/2000/svg" viewBox="0 0 24 24"><path fill="none" d="M0 0h24v24H0z"/><path d="M16.414 6.814l-3.228-3.228A2 2 0 0011.772 3H5c-1.1 0-2 .9-2 2v12c0 1.1.9 2 2 2h6.435A4.979 4.979 0 0110 15.5a5 5 0 015-5c.712 0 1.387.154 2 .422V8.228a2 2 0 00-.586-1.414zM12 8V4.5L15.5 8H12z" fill-rule="evenodd" clip-rule="evenodd" fill="#ffbc5c"/><path d="M15 10.5a4.97 4.97 0 013.536 1.464A4.97 4.97 0 0120 15.5a4.964 4.964 0 01-.984 2.98l2.239 2.239a.75.75 0 01.073.977l-.073.084a.75.75 0 01-1.061 0l-2.242-2.243A4.964 4.964 0 0115 20.5a4.97 4.97 0 01-3.536-1.464C10.52 18.091 10 16.836 10 15.5s.52-2.591 1.464-3.536A4.97 4.97 0 0115 10.5zm0 1.5c-.935 0-1.814.364-2.475 1.025S11.5 14.565 11.5 15.5s.364 1.814 1.025 2.475S14.065 19 15 19s1.814-.364 2.475-1.025S18.5 16.435 18.5 15.5s-.364-1.814-1.025-2.475S15.935 12 15 12z" fill-rule="evenodd" clip-rule="evenodd" fill="#2651a1"/></svg>