<svg width="30" height="30" fill="none" xmlns="http://www.w3.org/2000/svg"><path fill-rule="evenodd" clip-rule="evenodd" d="M10.37 6.857a2 2 0 00-2 2v16.714a2 2 0 002 2h13.059a2 2 0 002-2V13.17a2 2 0 00-.586-1.414L20.53 7.443a2 2 0 00-1.414-.586H10.37zm8.966 1.828l4.265 4.265h-4.265V8.685z" fill="#0A93E4"/><path fill-rule="evenodd" clip-rule="evenodd" d="M3.48 16.097a3.127 3.127 0 00-.442 1.56L3 20l1.97-.99a2.82 2.82 0 001.144-1.07l7.094-11.773-2.633-1.843L3.48 16.097zM14.285 1.273c-.727-.509-1.7-.286-2.171.498l-.855 1.418 2.633 1.843.855-1.419c.472-.783.265-1.831-.462-2.34z" fill="#0470D6"/></svg>