<svg version="1.1" id="Layer_1" xmlns="http://www.w3.org/2000/svg" x="0" y="0" viewBox="0 0 24 24" xml:space="preserve"><style>.st2{fill-rule:evenodd;clip-rule:evenodd;fill:#09bdf8}</style><path d="M19 9.6l2.4 2.5c.4.3.6.8.6 1.4V20c0 1.1-.9 2-2 2h-7c-1.1 0-2-.9-2-2v-9c0-1.1.9-2 2-2h4.5c.6 0 1.1.2 1.5.6" fill-rule="evenodd" clip-rule="evenodd" fill="#2651a1"/><path id="Rectangle" fill="none" d="M0 0h24v24H0z"/><path id="Fill-8_1_" class="st2" d="M4.5 17v.2c0 .6.5 1.2 1.1 1.2H7V17l2.5 2.2L7 21.5V20H5.5C4.1 20 3 18.9 3 17.5V17h1.5z"/><path class="st2" d="M12.4 5.1L10 2.6c-.4-.4-.9-.6-1.5-.6H4c-1.1 0-2 .9-2 2v9c0 1.1.9 2 2 2h7c1.1 0 2-.9 2-2V6.5c0-.6-.2-1.1-.6-1.4zm-4.271 6.389L7.037 13H5.5l1.755-2.307L5.613 8.5h1.529l.987 1.41.972-1.41h1.536l-1.635 2.186L10.75 13H9.221l-1.092-1.511z"/></svg>