<svg version="1.1" id="Layer_1" xmlns="http://www.w3.org/2000/svg" x="0" y="0" viewBox="0 0 24 24" xml:space="preserve"><style>.st1{fill-rule:evenodd;clip-rule:evenodd;fill:#09bdf8}</style><path id="Rectangle" fill="none" d="M0 0h24v24H0z"/><path id="Fill-8" class="st1" d="M4.5 17v.2c0 .6.5 1.2 1.1 1.2H7V17l2.5 2.2L7 21.5V20H5.5C4.1 20 3 18.9 3 17.5V17h1.5z"/><path id="Fill-8_2_" class="st1" d="M4.5 17v.2c0 .6.5 1.2 1.1 1.2H7V17l2.5 2.2L7 21.5V20H5.5C4.1 20 3 18.9 3 17.5V17h1.5z"/><path d="M21.4 12.1L19 9.6c-.4-.4-.9-.6-1.5-.6H13c-1.1 0-2 .9-2 2v.375l.5.625H11v8c0 1.1.9 2 2 2h7c1.1 0 2-.9 2-2v-6.5c0-.6-.2-1.1-.6-1.4z" fill-rule="evenodd" clip-rule="evenodd" fill="#2651a1"/><path class="st1" d="M12.4 5L10 2.6c-.4-.4-.9-.6-1.4-.6H4c-1.1 0-2 .9-2 2v9c0 1.1.9 2 2 2h7c1.1 0 2-.9 2-2V6.4c0-.5-.2-1-.6-1.4zM9 6a1 1 0 110 2 1 1 0 010-2zm-5 6l2.5-3.5 2 2.5 1-1.5 2 2.5H4z"/></svg>