<svg width="32" height="32" fill="none" xmlns="http://www.w3.org/2000/svg"><path d="M12.963 4.025V.799h-.857v2.236H5.575c-1.32 0-2.375 1.022-2.375 2.299v21.171c0 1.278 1.056 2.3 2.375 2.3h6.53v2.394h.858V4.025z" fill="url(#paint0_linear_392_7845)"/><path d="M22.793 3.067h-7.586V.799h-.858v30.4h.858v-2.203h11.676c1.32 0 2.375-1.022 2.375-2.3V9.295l-6.465-6.227z" fill="url(#paint1_linear_392_7845)"/><path d="M23.716 9.258h5.377L22.66 3.03v5.205c0 .543.461 1.022 1.055 1.022z" fill="url(#paint2_linear_392_7845)"/><path d="M14.679 23.155l4.024-2.842v1.853h3.958v1.947h-3.958v1.884l-4.024-2.842z" fill="url(#paint3_linear_392_7845)"/><path d="M12.568 23.155l-4.024-2.842v1.853H4.586v1.947h3.958v1.884l4.024-2.842z" fill="url(#paint4_linear_392_7845)"/><defs><linearGradient id="paint0_linear_392_7845" x1="3.21" y1="15.999" x2="12.959" y2="15.999" gradientUnits="userSpaceOnUse"><stop stop-color="#FFCB5D"/><stop offset="1" stop-color="#FF723F"/></linearGradient><linearGradient id="paint1_linear_392_7845" x1="29.258" y1="15.999" x2="14.349" y2="15.999" gradientUnits="userSpaceOnUse"><stop stop-color="#09BDF8"/><stop offset="1" stop-color="#1591D4"/></linearGradient><linearGradient id="paint2_linear_392_7845" x1="22.972" y1="8.956" x2="25.783" y2="6.053" gradientUnits="userSpaceOnUse"><stop stop-color="#2651A1"/><stop offset="1" stop-color="#1E3C74"/></linearGradient><linearGradient id="paint3_linear_392_7845" x1="22.661" y1="23.155" x2="14.689" y2="23.155" gradientUnits="userSpaceOnUse"><stop stop-color="#FFE9C5"/><stop offset="1" stop-color="#FFCB5D"/></linearGradient><linearGradient id="paint4_linear_392_7845" x1="4.586" y1="23.155" x2="12.557" y2="23.155" gradientUnits="userSpaceOnUse"><stop stop-color="#09BDF8"/><stop offset="1" stop-color="#1591D4"/></linearGradient></defs></svg>