<svg xmlns="http://www.w3.org/2000/svg" fill="none" viewBox="0 0 101 40"><path d="M92.957 0H8.047c-.309 0-.615 0-.923.002-.259.002-.515.008-.776.013a9.464 9.464 0 00-1.691.177c-.559.112-1.1.323-1.605.627a5.583 5.583 0 00-1.366 1.178 6.331 6.331 0 00-.994 1.621 7.484 7.484 0 00-.528 1.904 15.335 15.335 0 00-.151 2.002c-.008.306-.009.614-.013.92V31.56c.004.31.005.61.013.921.006.671.057 1.34.151 2.002a7.47 7.47 0 00.528 1.905c.255.598.591 1.143.994 1.614.4.477.86.875 1.366 1.179a5.07 5.07 0 001.605.63c.559.11 1.124.168 1.691.177.26.007.517.011.776.011.308.002.614.002.924.002h84.909c.303 0 .612 0 .915-.002.257 0 .52-.004.778-.01a9.514 9.514 0 001.688-.178 5.146 5.146 0 001.61-.63A5.444 5.444 0 0099.315 38a6.461 6.461 0 00.997-1.614c.255-.6.431-1.242.522-1.905.095-.661.147-1.33.157-2.002.003-.31.003-.61.003-.921.007-.364.007-.725.007-1.094V9.536c0-.366 0-.73-.007-1.092 0-.306 0-.614-.003-.92-.01-.671-.062-1.34-.157-2.002a7.462 7.462 0 00-.522-1.904c-.521-1.203-1.347-2.182-2.362-2.8a5.117 5.117 0 00-1.61-.627 9.342 9.342 0 00-1.69-.176c-.257-.005-.52-.011-.778-.013C93.569 0 93.26 0 92.957 0z" fill="#A6A6A6"/><path d="M7.357 38.998c-.256 0-.505-.004-.76-.01a9.053 9.053 0 01-1.568-.163 4.434 4.434 0 01-1.391-.544 4.663 4.663 0 01-1.173-1.01 5.341 5.341 0 01-.857-1.387 6.44 6.44 0 01-.456-1.646 14.538 14.538 0 01-.14-1.863c-.005-.21-.012-.907-.012-.907V8.519s.007-.686.012-.888c.007-.623.053-1.245.14-1.86.08-.575.233-1.131.456-1.651a5.4 5.4 0 01.852-1.39 4.8 4.8 0 011.177-1.016 4.383 4.383 0 011.388-.54A9.078 9.078 0 016.6 1.011L7.357 1h86.281l.767.013a8.832 8.832 0 011.56.161c.488.098.96.282 1.403.544.871.532 1.58 1.372 2.028 2.404a6.49 6.49 0 01.449 1.638 15.2 15.2 0 01.146 1.875c.002.282.002.584.002.884.007.373.007.728.007 1.085v20.79c0 .362 0 .714-.007 1.069 0 .323 0 .619-.003.924-.01.617-.058 1.232-.143 1.84a6.458 6.458 0 01-.454 1.66 5.484 5.484 0 01-.852 1.376c-.343.412-.74.755-1.175 1.016a4.417 4.417 0 01-1.4.546c-.52.1-1.044.155-1.57.162-.246.007-.503.011-.754.011l-.91.002-85.375-.002z" fill="#000"/><path d="M43.387 14.09c0 .643-.12 1.18-.36 1.613-.24.43-.587.754-1.043.973-.455.216-1.005.324-1.648.324H38.75v-5.71h1.758c.591 0 1.101.106 1.531.32.43.21.762.524.996.94.235.415.352.928.352 1.54zm-.977.027c0-.469-.074-.854-.222-1.156a1.425 1.425 0 00-.649-.672c-.284-.148-.634-.223-1.05-.223h-.801v4.149h.664c.69 0 1.205-.176 1.546-.527.342-.352.512-.876.512-1.57zm5.942.711c0 .36-.047.679-.141.957-.094.279-.23.514-.41.707-.18.19-.396.336-.649.438a2.33 2.33 0 01-.855.148 2.18 2.18 0 01-.816-.148 1.863 1.863 0 01-.645-.438 2.004 2.004 0 01-.418-.707 2.851 2.851 0 01-.148-.957c0-.476.082-.88.246-1.21.166-.334.403-.588.71-.763.308-.174.674-.261 1.098-.261.399 0 .75.087 1.055.261.305.175.543.429.715.762.172.333.258.737.258 1.211zm-3.137 0c0 .315.038.585.113.809.078.224.198.396.36.515.161.117.37.176.624.176.256 0 .464-.058.626-.176.161-.12.28-.291.355-.515.075-.224.113-.494.113-.809 0-.315-.038-.582-.113-.8a.985.985 0 00-.355-.505c-.162-.117-.372-.175-.63-.175-.38 0-.657.127-.831.382-.175.256-.262.622-.262 1.098zm7.726 2.168l-.547-2.012a105.835 105.835 0 01-.203-.793l-.101-.418c-.029-.127-.05-.226-.067-.296h-.03l-.063.296a27.015 27.015 0 01-.207.86 9.046 9.046 0 01-.094.367l-.574 1.996h-1.008l-1.211-4.324h.93l.562 2.148c.037.146.072.304.106.473a11.036 11.036 0 01.152.863h.031a12.147 12.147 0 01.106-.605c.023-.12.047-.232.07-.336a3.11 3.11 0 01.066-.258l.664-2.285h1.004l.637 2.285a8.597 8.597 0 01.238 1.195h.032a6.69 6.69 0 01.054-.359c.029-.154.062-.316.098-.488a9.86 9.86 0 01.113-.485l.574-2.148h.914l-1.218 4.324H52.94zm5.243-4.402c.487 0 .866.126 1.136.379.274.25.41.652.41 1.207V17h-.917v-2.648c0-.336-.07-.588-.208-.754-.138-.17-.351-.254-.64-.254-.42 0-.711.129-.875.386-.162.258-.242.632-.242 1.122V17h-.918v-4.324h.715l.128.586h.051a1.25 1.25 0 01.348-.371c.14-.1.297-.174.469-.223a1.98 1.98 0 01.543-.074zM61.938 17h-.922v-6.078h.922V17zm5.14-2.172c0 .36-.047.679-.14.957a1.929 1.929 0 01-.41.707c-.18.19-.397.336-.65.438a2.331 2.331 0 01-.855.148 2.18 2.18 0 01-.816-.148 1.863 1.863 0 01-.644-.438 2.006 2.006 0 01-.419-.707 2.854 2.854 0 01-.148-.957c0-.476.082-.88.246-1.21.167-.334.404-.588.711-.763.307-.174.673-.261 1.098-.261.398 0 .75.087 1.055.261.304.175.542.429.714.762.172.333.258.737.258 1.211zm-3.137 0c0 .315.038.585.114.809.078.224.198.396.36.515.16.117.369.176.624.176s.464-.058.625-.176c.162-.12.28-.291.355-.515.076-.224.114-.494.114-.809a2.47 2.47 0 00-.114-.8.985.985 0 00-.355-.505c-.161-.117-.371-.175-.629-.175-.38 0-.657.127-.832.382-.174.256-.262.622-.262 1.098zm5.887-2.234c.547 0 .96.12 1.238.363.282.242.422.62.422 1.133V17h-.652l-.176-.613h-.031a2.228 2.228 0 01-.379.386c-.13.102-.281.178-.453.227a2.14 2.14 0 01-.621.078c-.258 0-.489-.047-.692-.14a1.099 1.099 0 01-.48-.438c-.117-.195-.176-.443-.176-.742 0-.445.165-.78.496-1.004.334-.224.836-.348 1.508-.371l.75-.027v-.227c0-.3-.07-.513-.21-.64-.139-.128-.334-.192-.587-.192-.216 0-.426.031-.629.094a4.47 4.47 0 00-.594.23l-.296-.648a3.345 3.345 0 011.563-.379zm.75 2.34l-.559.02c-.458.015-.78.093-.964.233a.687.687 0 00-.278.579c0 .213.064.37.192.468.127.097.295.145.504.145.317 0 .58-.09.789-.27.21-.182.316-.449.316-.8v-.375zm3.649 2.144c-.516 0-.93-.187-1.243-.562-.31-.378-.465-.934-.465-1.668 0-.743.158-1.304.473-1.684.318-.38.736-.57 1.254-.57.219 0 .41.03.574.09.164.057.305.135.422.234.12.099.221.21.305.332h.043a9.463 9.463 0 01-.047-.348 4.207 4.207 0 01-.024-.425v-1.555h.922V17h-.718l-.164-.59h-.04a1.38 1.38 0 01-.719.578c-.16.06-.352.09-.573.09zm.257-.746c.394 0 .67-.113.832-.34.162-.226.245-.566.25-1.02v-.12c0-.485-.078-.856-.234-1.114-.156-.26-.441-.39-.855-.39a.849.849 0 00-.758.402c-.172.266-.258.637-.258 1.113 0 .477.086.841.258 1.094.174.25.43.375.765.375zm7.512-2.957h-1.05V17h-.919v-3.625h-.707v-.441l.707-.27v-.3c0-.368.058-.66.172-.876a1.02 1.02 0 01.5-.465 1.93 1.93 0 01.782-.144c.197 0 .378.017.542.05.165.032.303.068.415.11l-.239.695a3.03 3.03 0 00-.297-.078 1.516 1.516 0 00-.351-.039c-.209 0-.362.065-.461.195-.097.13-.145.32-.145.57v.294h1.051v.699zm4.567 1.453c0 .36-.047.679-.141.957-.094.279-.23.514-.41.707-.18.19-.396.336-.649.438a2.331 2.331 0 01-.855.148 2.18 2.18 0 01-.817-.148 1.863 1.863 0 01-.644-.438 2.006 2.006 0 01-.418-.707 2.851 2.851 0 01-.148-.957c0-.476.082-.88.246-1.21.166-.334.403-.588.71-.763.308-.174.674-.261 1.098-.261.399 0 .75.087 1.055.261.304.175.543.429.715.762.172.333.257.737.257 1.211zm-3.137 0c0 .315.037.585.113.809.078.224.198.396.36.515.16.117.37.176.624.176.256 0 .464-.058.625-.176.162-.12.28-.291.356-.515.075-.224.113-.494.113-.809 0-.315-.038-.582-.113-.8a.985.985 0 00-.356-.505c-.161-.117-.37-.175-.629-.175-.38 0-.657.127-.832.382-.174.256-.261.622-.261 1.098zm6.383-2.234a2.651 2.651 0 01.46.043l-.085.86a1.17 1.17 0 00-.203-.036 2.146 2.146 0 00-.212-.012c-.163 0-.32.028-.468.082a1.106 1.106 0 00-.664.645 1.497 1.497 0 00-.098.562V17h-.922v-4.324h.719l.125.761h.043a1.92 1.92 0 01.32-.421c.128-.128.274-.23.438-.305.166-.078.349-.117.547-.117zm-40.553 7.84L47.018 29h-1.536l-1.43-5.133a16.35 16.35 0 01-.117-.445 55.989 55.989 0 01-.128-.527 37.05 37.05 0 01-.106-.493 9.785 9.785 0 01-.058-.351 4.274 4.274 0 01-.053.346c-.028.148-.06.312-.1.492-.035.175-.074.351-.117.527-.043.172-.082.324-.117.457L41.85 29h-1.53l-2.232-8.566H39.5l1.236 5.021c.04.16.079.334.117.522.044.183.082.369.118.556a16.926 16.926 0 01.181 1.031c.02-.148.045-.312.076-.492.032-.183.065-.369.1-.556.04-.192.078-.375.117-.551.043-.176.086-.334.13-.475l1.394-5.056h1.37l1.425 5.074c.043.144.084.306.123.486a19.279 19.279 0 01.304 1.57 21.776 21.776 0 01.252-1.406c.055-.254.11-.488.164-.703l1.23-5.021h1.419zm2.45 2.08V29h-1.378v-6.486h1.377zm-.68-2.485c.21 0 .392.057.544.17.157.113.235.309.235.586 0 .274-.078.469-.235.586a.887.887 0 01-.545.17.906.906 0 01-.556-.17c-.149-.117-.223-.312-.223-.586 0-.277.074-.473.223-.586a.906.906 0 01.556-.17zm6.034 2.362c.731 0 1.3.19 1.706.568.41.375.615.979.615 1.81V29h-1.377v-3.973c0-.504-.104-.88-.31-1.13-.208-.254-.528-.381-.962-.381-.629 0-1.066.193-1.312.58-.242.386-.363.947-.363 1.681V29H53.68v-6.486h1.072l.193.879h.077c.14-.227.314-.413.521-.557.21-.148.445-.26.703-.334.262-.074.533-.111.814-.111zm6.428 6.726c-.773 0-1.394-.281-1.863-.844-.465-.566-.697-1.4-.697-2.502 0-1.113.236-1.955.709-2.525.476-.57 1.103-.855 1.88-.855.329 0 .616.045.862.134.246.086.457.204.633.352.18.148.332.314.457.498h.064c-.02-.121-.043-.295-.07-.521a6.356 6.356 0 01-.035-.64v-2.331h1.383V29h-1.079l-.246-.885h-.058a2.07 2.07 0 01-1.078.867 2.48 2.48 0 01-.862.135zm.387-1.119c.59 0 1.006-.17 1.248-.51.242-.34.367-.85.375-1.529v-.182c0-.726-.117-1.283-.352-1.67-.234-.39-.662-.585-1.283-.585-.496 0-.875.2-1.136.603-.258.398-.387.955-.387 1.67s.129 1.262.387 1.64c.261.376.644.563 1.148.563zm10.652-2.256c0 .54-.07 1.018-.21 1.436a2.872 2.872 0 01-.616 1.06c-.27.285-.594.504-.972.657a3.493 3.493 0 01-1.284.222c-.445 0-.853-.074-1.224-.223a2.793 2.793 0 01-.967-.656 3.008 3.008 0 01-.627-1.06 4.276 4.276 0 01-.223-1.436c0-.715.123-1.32.37-1.816.25-.5.605-.881 1.066-1.143.46-.262 1.01-.392 1.646-.392.598 0 1.125.13 1.582.392.457.262.815.643 1.073 1.143.257.5.386 1.105.386 1.816zm-4.705 0c0 .473.057.877.17 1.213.117.336.297.594.54.774.241.175.554.263.937.263s.695-.088.937-.264c.242-.18.42-.437.533-.773.114-.336.17-.74.17-1.213 0-.473-.056-.873-.17-1.201-.113-.332-.29-.584-.533-.756-.242-.176-.556-.264-.943-.264-.57 0-.986.192-1.248.575-.262.383-.393.931-.393 1.646zm11.59 3.252l-.82-3.017a51.948 51.948 0 01-.557-2.262h-.047c-.02.105-.05.254-.094.445a39.623 39.623 0 01-.31 1.29c-.05.214-.098.398-.14.55l-.862 2.994H77.07l-1.816-6.486h1.394l.844 3.223c.055.218.108.454.158.708a16.632 16.632 0 01.229 1.295h.047a19.03 19.03 0 01.158-.908c.035-.18.07-.348.105-.504.036-.16.069-.289.1-.386l.996-3.428h1.506l.955 3.428a12.867 12.867 0 01.275 1.236c.043.223.07.408.082.556h.047c.016-.132.043-.312.082-.539.043-.23.092-.474.147-.732.055-.262.111-.504.17-.727l.861-3.222h1.371l-1.828 6.486h-1.54zm8.842-1.846c0 .426-.104.786-.31 1.079-.208.293-.51.515-.909.668-.394.148-.879.222-1.453.222a5.94 5.94 0 01-1.172-.1 4.015 4.015 0 01-.92-.292v-1.19c.309.145.654.27 1.037.375a4.15 4.15 0 001.096.158c.453 0 .78-.07.979-.21a.676.676 0 00.298-.575.608.608 0 00-.123-.375c-.078-.113-.226-.228-.445-.346a8.51 8.51 0 00-.95-.433 7.919 7.919 0 01-1.036-.492 1.807 1.807 0 01-.639-.592c-.144-.235-.217-.533-.217-.897 0-.574.227-1.01.68-1.306.457-.301 1.06-.451 1.81-.451a5.349 5.349 0 012.168.468l-.433 1.037a6.474 6.474 0 00-.885-.316 3.167 3.167 0 00-.896-.129c-.356 0-.627.055-.815.164a.517.517 0 00-.275.469c0 .152.045.281.135.387.09.105.244.21.462.316.223.106.532.236.926.393.387.148.72.304 1.002.468.285.16.504.358.656.592.153.235.229.537.229.908z" fill="#fff"/><path fill="#F25022" d="M9.038 8.795h10.744v10.744H9.038z"/><path fill="#7FBA00" d="M20.898 8.795h10.744v10.744H20.898z"/><path fill="#00A4EF" d="M9.038 20.641h10.744v10.744H9.038z"/><path fill="#FFB900" d="M20.898 20.641h10.744v10.744H20.898z"/></svg>