<svg version="1.1" id="Layer_1" xmlns="http://www.w3.org/2000/svg" x="0" y="0" viewBox="0 0 24 24" xml:space="preserve"><style>.st0,.st1{fill-rule:evenodd;clip-rule:evenodd;fill:#ffbc5c}.st1{fill:#2651a1}.st2{fill:none}</style><path class="st0" d="M11 14H4a1 1 0 110-2h7c.6 0 1 .4 1 1s-.4 1-1 1z"/><path class="st1" d="M7 18H4a1 1 0 110-2h3c.6 0 1 .4 1 1s-.4 1-1 1z"/><path id="Rectangle" class="st2" d="M0 0h24v24H0z"/><g id="view"><path id="Rectangle_1_" class="st2" d="M0 0h24v24H0z"/><g id="Group_1_" transform="translate(10 10)"><path id="Combined-Shape" class="st1" d="M5 .5a5 5 0 015 5 5 5 0 01-1 3l2.3 2.2c.2.3.2.7 0 1-.3.4-.8.4-1.1 0L8 9.6A5 5 0 011.5 9a5 5 0 010-7A5 5 0 015 .5z"/></g></g><circle cx="15" cy="15.5" r="3.5" fill-rule="evenodd" clip-rule="evenodd" fill="#fff"/><path class="st0" d="M7 6H4a1 1 0 110-2h3c.6 0 1 .4 1 1s-.4 1-1 1zm11 0h-3a1 1 0 110-2h3c.6 0 1 .4 1 1s-.4 1-1 1z"/><path class="st1" d="M11.5 6h-1a1 1 0 110-2h1c.6 0 1 .4 1 1s-.4 1-1 1zM6 10H4a1 1 0 110-2h2c.6 0 1 .4 1 1s-.4 1-1 1z"/><path class="st0" d="M18 10a1 1 0 110-2c.6 0 1 .4 1 1s-.4 1-1 1zm-4 0h-4a1 1 0 110-2h4c.6 0 1 .4 1 1s-.4 1-1 1z"/></svg>